<svg width="23" height="24" viewBox="0 0 23 24" fill="none" xmlns="http://www.w3.org/2000/svg">
<path d="M17.6527 12.2317C17.9123 12.2317 18.1347 12.0093 18.1162 11.7497C17.8659 8.38458 15.0663 5.74255 11.6456 5.74255C8.22483 5.74255 5.42521 8.38458 5.17491 11.7497C5.15637 12.0093 5.37886 12.2317 5.63842 12.2317H17.6527Z" fill="white"/>
<path d="M20.9161 12.9269H20.8419C20.332 12.9269 19.9149 12.5098 19.9149 11.9999C19.9149 11.49 20.332 11.0729 20.8419 11.0729C21.3518 11.0729 21.806 11.49 21.806 11.9999C21.806 12.5098 21.4259 12.9269 20.9161 12.9269ZM2.44968 12.9269H2.37551C1.86565 12.9269 1.44849 12.5098 1.44849 11.9999C1.44849 11.49 1.86565 11.0729 2.37551 11.0729C2.88538 11.0729 3.33962 11.49 3.33962 11.9999C3.33962 12.5098 2.95954 12.9269 2.44968 12.9269ZM18.1442 6.42848C17.9032 6.42848 17.6715 6.33577 17.4861 6.15964C17.1245 5.7981 17.1245 5.21407 17.4861 4.85253L17.6066 4.73202C17.9681 4.37048 18.5521 4.37048 18.9137 4.73202C19.2752 5.09356 19.2752 5.67759 18.9137 6.03913L18.7932 6.15964C18.617 6.33577 18.3853 6.42848 18.1442 6.42848ZM5.14732 6.42848C4.9063 6.42848 4.67454 6.33577 4.48914 6.15964L4.36862 6.02986C4.00708 5.66832 4.00708 5.08429 4.36862 4.72275C4.73016 4.36121 5.31419 4.36121 5.67573 4.72275L5.79624 4.84326C6.15778 5.2048 6.15778 5.78883 5.79624 6.15037C5.62011 6.33577 5.37908 6.42848 5.14732 6.42848ZM11.6458 3.69375C11.1359 3.69375 10.7188 3.31367 10.7188 2.8038V2.72964C10.7188 2.21977 11.1359 1.80261 11.6458 1.80261C12.1556 1.80261 12.5728 2.21977 12.5728 2.72964C12.5728 3.2395 12.1556 3.69375 11.6458 3.69375Z" fill="white"/>
<path d="M19.0619 15.4762H4.22945C3.84937 15.4762 3.53418 15.161 3.53418 14.781C3.53418 14.4009 3.84937 14.0857 4.22945 14.0857H19.0619C19.442 14.0857 19.7572 14.4009 19.7572 14.781C19.7572 15.161 19.442 15.4762 19.0619 15.4762Z" fill="white"/>
<path d="M17.2078 18.2574H6.08345C5.70337 18.2574 5.38818 17.9422 5.38818 17.5621C5.38818 17.182 5.70337 16.8668 6.08345 16.8668H17.2078C17.5879 16.8668 17.903 17.182 17.903 17.5621C17.903 17.9422 17.5879 18.2574 17.2078 18.2574Z" fill="white"/>
<path d="M14.4269 21.0385H8.8647C8.48462 21.0385 8.16943 20.7233 8.16943 20.3432C8.16943 19.9631 8.48462 19.6479 8.8647 19.6479H14.4269C14.8069 19.6479 15.1221 19.9631 15.1221 20.3432C15.1221 20.7233 14.8069 21.0385 14.4269 21.0385Z" fill="white"/>
</svg>
