<svg width="23" height="24" viewBox="0 0 23 24" fill="none" xmlns="http://www.w3.org/2000/svg">
<path d="M11.4999 18.4891C15.0838 18.4891 17.9891 15.5838 17.9891 11.9999C17.9891 8.41605 15.0838 5.51074 11.4999 5.51074C7.91605 5.51074 5.01074 8.41605 5.01074 11.9999C5.01074 15.5838 7.91605 18.4891 11.4999 18.4891Z" fill="white"/>
<path d="M11.5 22.1601C10.9902 22.1601 10.573 21.78 10.573 21.2702V21.196C10.573 20.6862 10.9902 20.269 11.5 20.269C12.0099 20.269 12.4271 20.6862 12.4271 21.196C12.4271 21.7059 12.0099 22.1601 11.5 22.1601ZM18.119 19.5459C17.878 19.5459 17.6462 19.4532 17.4608 19.2771L17.3403 19.1566C16.9788 18.795 16.9788 18.211 17.3403 17.8494C17.7018 17.4879 18.2859 17.4879 18.6474 17.8494L18.7679 17.97C19.1295 18.3315 19.1295 18.9155 18.7679 19.2771C18.5918 19.4532 18.36 19.5459 18.119 19.5459ZM4.88106 19.5459C4.64003 19.5459 4.40828 19.4532 4.22287 19.2771C3.86133 18.9155 3.86133 18.3315 4.22287 17.97L4.34338 17.8494C4.70492 17.4879 5.28895 17.4879 5.65049 17.8494C6.01203 18.211 6.01203 18.795 5.65049 19.1566L5.52998 19.2771C5.35384 19.4532 5.11282 19.5459 4.88106 19.5459ZM20.7703 12.9269H20.6961C20.1863 12.9269 19.7691 12.5098 19.7691 11.9999C19.7691 11.49 20.1863 11.0729 20.6961 11.0729C21.206 11.0729 21.6602 11.49 21.6602 11.9999C21.6602 12.5098 21.2802 12.9269 20.7703 12.9269ZM2.30392 12.9269H2.22976C1.7199 12.9269 1.30273 12.5098 1.30273 11.9999C1.30273 11.49 1.7199 11.0729 2.22976 11.0729C2.73963 11.0729 3.19387 11.49 3.19387 11.9999C3.19387 12.5098 2.81379 12.9269 2.30392 12.9269ZM17.9985 6.42848C17.7575 6.42848 17.5257 6.33577 17.3403 6.15964C16.9788 5.7981 16.9788 5.21407 17.3403 4.85253L17.4608 4.73202C17.8224 4.37048 18.4064 4.37048 18.7679 4.73202C19.1295 5.09356 19.1295 5.67759 18.7679 6.03913L18.6474 6.15964C18.4713 6.33577 18.2395 6.42848 17.9985 6.42848ZM5.00157 6.42848C4.76055 6.42848 4.52879 6.33577 4.34338 6.15964L4.22287 6.02986C3.86133 5.66832 3.86133 5.08429 4.22287 4.72275C4.58441 4.36121 5.16844 4.36121 5.52998 4.72275L5.65049 4.84326C6.01203 5.2048 6.01203 5.78883 5.65049 6.15037C5.47436 6.33577 5.23333 6.42848 5.00157 6.42848ZM11.5 3.69375C10.9902 3.69375 10.573 3.31367 10.573 2.8038V2.72964C10.573 2.21977 10.9902 1.80261 11.5 1.80261C12.0099 1.80261 12.4271 2.21977 12.4271 2.72964C12.4271 3.2395 12.0099 3.69375 11.5 3.69375Z" fill="white"/>
</svg>
