<svg width="23" height="24" viewBox="0 0 23 24" fill="none" xmlns="http://www.w3.org/2000/svg">
<path d="M19.948 8.99636C19.948 9.94193 19.5123 10.7948 18.8078 11.351C18.2979 11.7682 17.6397 12.0185 16.9259 12.0185C15.2665 12.0185 13.9131 10.665 13.9131 9.00563C13.9131 8.18057 14.2468 7.42968 14.803 6.88274V6.87347C15.35 6.32652 16.1009 5.98352 16.9259 5.98352C18.5946 5.98352 19.948 7.33698 19.948 8.99636Z" fill="white"/>
<path d="M18.9376 18.2388C17.9642 19.1288 16.7127 19.6201 15.3871 19.6201H5.76453C3.22448 19.4347 2.09351 17.4786 2.09351 15.7358C2.09351 14.1784 2.99272 12.4542 4.96729 11.9721C4.10515 8.65335 5.75526 6.33578 7.68348 5.23262C9.59315 4.148 12.2815 3.97186 14.3025 5.46437C14.1263 5.59416 13.9687 5.73321 13.8111 5.89081L13.4125 6.30797V6.36359C12.8377 7.11448 12.5226 8.03224 12.5226 8.99635C12.5226 11.4252 14.5064 13.3997 16.9352 13.3997C17.9364 13.3997 18.9098 13.0567 19.6699 12.4356C19.809 12.3244 19.948 12.2039 20.0686 12.0741C20.9863 14.0023 20.8565 16.5609 18.9376 18.2388Z" fill="white"/>
</svg>
