<svg width="23" height="24" viewBox="0 0 23 24" fill="none" xmlns="http://www.w3.org/2000/svg">
<path d="M19.022 12H4.56042C4.35648 12 4.17107 11.8609 4.10618 11.6662C1.55686 3.23956 14.424 0.00423267 15.9165 9.05202C17.4554 9.24669 18.6698 10.1181 19.4207 11.2862C19.6153 11.5921 19.3836 12 19.022 12Z" fill="white"/>
<path d="M19.2074 15.5041H4.37496C3.99488 15.5041 3.67969 15.1889 3.67969 14.8088C3.67969 14.4287 3.99488 14.1135 4.37496 14.1135H19.2074C19.5875 14.1135 19.9027 14.4287 19.9027 14.8088C19.9027 15.1889 19.5875 15.5041 19.2074 15.5041Z" fill="white"/>
<path d="M17.3533 18.2852H6.22896C5.84888 18.2852 5.53369 17.97 5.53369 17.5899C5.53369 17.2098 5.84888 16.8947 6.22896 16.8947H17.3533C17.7334 16.8947 18.0486 17.2098 18.0486 17.5899C18.0486 17.97 17.7334 18.2852 17.3533 18.2852Z" fill="white"/>
<path d="M14.5724 21.0663H9.01021C8.63013 21.0663 8.31494 20.7511 8.31494 20.3711C8.31494 19.991 8.63013 19.6758 9.01021 19.6758H14.5724C14.9525 19.6758 15.2676 19.991 15.2676 20.3711C15.2676 20.7511 14.9525 21.0663 14.5724 21.0663Z" fill="white"/>
</svg>
