<svg width="23" height="24" viewBox="0 0 23 24" fill="none" xmlns="http://www.w3.org/2000/svg">
<path d="M19.1905 10.9153C18.4766 10.0624 17.5589 9.50621 16.4928 9.26519C16.2518 8.18983 15.8346 7.26281 15.2228 6.49337C15.2042 6.46556 15.1857 6.43775 15.1672 6.41921C13.1277 3.95332 9.7904 3.96259 7.53773 5.24189C5.60951 6.34505 3.96867 8.67189 4.83081 11.9906C2.85624 12.4727 1.94775 14.197 1.94775 15.7544C1.94775 17.4972 3.088 19.4532 5.62805 19.6386H15.2135C15.2228 19.6386 15.2413 19.6386 15.2506 19.6386C16.567 19.6386 17.8277 19.1473 18.8011 18.2573C21.1279 16.1993 20.822 12.8435 19.1905 10.9153Z" fill="white"/>
<path d="M20.2567 8.97783C20.2567 9.29302 20.2196 9.59894 20.1269 9.89559C19.4502 9.10761 18.5881 8.52359 17.6332 8.16205C17.3366 7.23502 16.9101 6.40997 16.3539 5.68688C16.3261 5.6498 16.2983 5.61272 16.2612 5.56637C16.4374 5.52929 16.6228 5.52002 16.7989 5.52002C18.7086 5.52002 20.2567 7.06815 20.2567 8.97783Z" fill="white"/>
</svg>
