<svg width="24" height="24" viewBox="0 0 24 24" fill="none" xmlns="http://www.w3.org/2000/svg">
<path d="M4.6 2C3.91044 2 3.24912 2.27393 2.76152 2.76152C2.27393 3.24912 2 3.91044 2 4.6V8.4C2 9.08956 2.27393 9.75088 2.76152 10.2385C3.24912 10.7261 3.91044 11 4.6 11H8.4C9.08956 11 9.75088 10.7261 10.2385 10.2385C10.7261 9.75088 11 9.08956 11 8.4V4.6C11 3.91044 10.7261 3.24912 10.2385 2.76152C9.75088 2.27393 9.08956 2 8.4 2H4.6ZM15.6 2C14.9104 2 14.2491 2.27393 13.7615 2.76152C13.2739 3.24912 13 3.91044 13 4.6V8.4C13 9.08956 13.2739 9.75088 13.7615 10.2385C14.2491 10.7261 14.9104 11 15.6 11H19.4C20.0896 11 20.7509 10.7261 21.2385 10.2385C21.7261 9.75088 22 9.08956 22 8.4V4.6C22 3.91044 21.7261 3.24912 21.2385 2.76152C20.7509 2.27393 20.0896 2 19.4 2H15.6ZM4.6 13C3.91044 13 3.24912 13.2739 2.76152 13.7615C2.27393 14.2491 2 14.9104 2 15.6V19.4C2 20.0896 2.27393 20.7509 2.76152 21.2385C3.24912 21.7261 3.91044 22 4.6 22H8.4C9.08956 22 9.75088 21.7261 10.2385 21.2385C10.7261 20.7509 11 20.0896 11 19.4V15.6C11 14.9104 10.7261 14.2491 10.2385 13.7615C9.75088 13.2739 9.08956 13 8.4 13H4.6ZM15.6 13C14.9104 13 14.2491 13.2739 13.7615 13.7615C13.2739 14.2491 13 14.9104 13 15.6V19.4C13 20.0896 13.2739 20.7509 13.7615 21.2385C14.2491 21.7261 14.9104 22 15.6 22H19.4C20.0896 22 20.7509 21.7261 21.2385 21.2385C21.7261 20.7509 22 20.0896 22 19.4V15.6C22 14.9104 21.7261 14.2491 21.2385 13.7615C20.7509 13.2739 20.0896 13 19.4 13H15.6Z" fill="white"/>
</svg>
