<svg width="28" height="28" viewBox="0 0 28 28" fill="none" xmlns="http://www.w3.org/2000/svg">
<path d="M25.3333 10.0625L7.33325 23.5625V18.2795M2.83325 10.0625L20.8333 23.5625V18.2795M22.6873 6.6166L21.9459 5.44323C21.5364 4.7941 21.3316 4.46898 21.0628 4.43973C20.795 4.40935 20.4946 4.7176 19.895 5.3341C17.9578 7.32535 16.0205 7.0306 14.0833 10.6115C12.146 7.0306 10.2088 7.32535 8.2715 5.3341C7.67188 4.7176 7.3715 4.40935 7.10375 4.43973C6.83488 4.46898 6.63013 4.7941 6.22063 5.44323L5.48038 6.6166C5.1935 7.06885 5.05063 7.2961 5.09 7.5346C5.12825 7.7731 5.33413 7.93623 5.747 8.26248L12.7018 13.7727C13.3666 14.2992 13.6996 14.5625 14.0833 14.5625C14.4669 14.5625 14.7999 14.2992 15.4648 13.7727L22.4195 8.26248C22.8324 7.93623 23.0383 7.7731 23.0765 7.5346C23.1159 7.2961 22.973 7.06885 22.6873 6.6166Z" stroke="white" stroke-width="1.6875" stroke-linecap="round" stroke-linejoin="round"/>
</svg>
