<svg width="28" height="28" viewBox="0 0 28 28" fill="none" xmlns="http://www.w3.org/2000/svg">
<path d="M8.2031 2.75C6.7361 2.89513 5.74835 3.22138 5.01035 3.9605C3.68848 5.28463 3.68848 7.4165 3.68848 11.6814V16.2039C3.68848 20.4676 3.68848 22.6006 5.01035 23.9259C6.33223 25.2511 8.46073 25.25 12.7166 25.25H14.9745C19.2304 25.25 21.3589 25.25 22.6807 23.9259C23.8811 22.7221 23.9925 20.8693 24.0026 17.3491" stroke="white" stroke-width="1.6875" stroke-linecap="round" stroke-linejoin="round"/>
<path d="M12.7167 8.375L13.845 12.3125C14.475 13.5613 15.2659 13.8875 17.2313 14C18.7939 13.9618 19.7007 13.7773 20.4747 13.1045C21.0023 12.6455 21.2408 11.9536 21.3567 11.2651L21.7437 8.9375M24.5652 6.6875V12.3125M10.551 6.04963C12.3364 4.568 13.9272 3.77263 17.2268 2.89738C17.599 2.7991 17.9907 2.80104 18.3619 2.903C21.2824 3.70625 22.8597 4.4195 24.9724 6.00575C25.0624 6.07325 25.0894 6.19925 25.0264 6.29263C24.3368 7.30738 22.7967 8.12975 19.0189 9.5945C18.2321 9.89727 17.36 9.89245 16.5765 9.581C12.5535 7.9835 10.704 7.1285 10.479 6.24088C10.4717 6.20545 10.4746 6.16868 10.4874 6.13483C10.5001 6.10098 10.5222 6.07144 10.551 6.04963Z" stroke="white" stroke-width="1.6875" stroke-linecap="round" stroke-linejoin="round"/>
</svg>
